<svg width="128" height="20" viewBox="0 0 128 20" fill="none" xmlns="http://www.w3.org/2000/svg">
<path d="M0.140625 20V0H2.44744L11.2808 15.1143H10.043L18.7639 0H21.0707L21.0989 20H18.3982L18.3701 4.31429H19.0171L11.2527 17.5714H9.95865L2.13799 4.31429H2.84128V20H0.140625ZM24.0268 20L32.9446 0H35.7296L44.6756 20H41.7217L33.7604 1.6H34.8857L26.9243 20H24.0268ZM27.8246 15L28.5841 12.7143H39.6681L40.4839 15H27.8246ZM47.6132 20V0H55.9121C58.0126 0 59.8599 0.419048 61.454 1.25714C63.0669 2.09524 64.3141 3.26667 65.1956 4.77143C66.0958 6.27619 66.5459 8.01907 66.5459 10C66.5459 11.9809 66.0958 13.7238 65.1956 15.2286C64.3141 16.7334 63.0669 17.9048 61.454 18.7429C59.8599 19.5809 58.0126 20 55.9121 20H47.6132ZM50.4263 17.5143H55.7433C57.3749 17.5143 58.7815 17.2 59.963 16.5714C61.1634 15.9429 62.0917 15.0666 62.7481 13.9429C63.4045 12.8 63.7327 11.4857 63.7327 10C63.7327 8.49522 63.4045 7.18093 62.7481 6.05714C62.0917 4.93333 61.1634 4.05714 59.963 3.42857C58.7815 2.8 57.3749 2.48572 55.7433 2.48572H50.4263V17.5143ZM73.415 8.62857H83.5425V11.0571H73.415V8.62857ZM73.6682 17.5143H85.146V20H70.855V0H84.7522V2.48572H73.6682V17.5143ZM89.7012 20V0H97.3812C99.1064 0 100.578 0.276191 101.798 0.828573C103.017 1.38095 103.954 2.18095 104.611 3.22857C105.267 4.27619 105.596 5.52381 105.596 6.97143C105.596 8.41907 105.267 9.66664 104.611 10.7143C103.954 11.7429 103.017 12.5334 101.798 13.0857C100.578 13.6381 99.1064 13.9143 97.3812 13.9143H91.2485L92.5144 12.6V20H89.7012ZM102.867 20L97.8595 12.7429H100.87L105.933 20H102.867ZM92.5144 12.8857L91.2485 11.4857H97.2968C99.0973 11.4857 100.457 11.0952 101.376 10.3143C102.313 9.51429 102.783 8.4 102.783 6.97143C102.783 5.54286 102.313 4.43809 101.376 3.65714C100.457 2.87619 99.0973 2.48572 97.2968 2.48572H91.2485L92.5144 1.05714V12.8857ZM107.158 20L116.076 0H118.861L127.807 20H124.853L116.892 1.6H118.017L110.056 20H107.158ZM110.956 15L111.716 12.7143H122.8L123.616 15H110.956Z" fill="#1F1F1F"/>
</svg>
